<?xml version="1.0" encoding="utf-8"?>
<!-- Generator: Adobe Illustrator 27.8.1, SVG Export Plug-In . SVG Version: 6.00 Build 0)  -->
<svg version="1.1" id="Layer_1" xmlns="http://www.w3.org/2000/svg" xmlns:xlink="http://www.w3.org/1999/xlink" x="0px" y="0px"
	 viewBox="0 0 2000 2000" style="enable-background:new 0 0 2000 2000;" xml:space="preserve">
<style type="text/css">
	.st0{fill:#92E4A4;}
	.st1{fill:#FEFEFE;}
	.st2{fill:#FFFFFF;}
	.st3{fill:none;}
	.st4{font-family:'Gridnik';}
	.st5{font-size:310px;}
	.st6{letter-spacing:9;}
</style>
<path class="st0" d="M999,178c3.6,1.2,4,2.1,5.9,5.2c0.6,0.9,1.1,1.8,1.7,2.7c0.9,1.4,0.9,1.4,1.8,2.9c1.3,2,2.5,4,3.8,6.1
	c0.6,1,1.3,2.1,1.9,3.1c2.8,4.5,5.7,8.9,8.6,13.3c1.1,1.7,2.2,3.3,3.2,5c0.5,0.8,1,1.6,1.6,2.4c6.8,10.4,13.5,20.9,20.3,31.4
	c5.8,9.1,11.7,18.2,17.6,27.2c5.3,8.1,10.6,16.3,15.8,24.5c5.7,9,11.6,17.9,17.4,26.9c6.8,10.5,13.6,21,20.3,31.6
	c6.5,10.2,13,20.3,19.6,30.4c3.7,5.7,7.5,11.5,11.2,17.2c1.3,2,2.6,4,3.9,6c5.5,8.4,10.9,16.9,16.3,25.4
	c6.5,10.2,13.1,20.3,19.7,30.4c6.8,10.5,13.6,21,20.3,31.6c6.5,10.2,13,20.3,19.6,30.4c3.7,5.7,7.5,11.5,11.2,17.2
	c1.3,2,2.6,4,3.9,6c5.5,8.4,10.9,16.9,16.3,25.4c6.5,10.2,13.1,20.3,19.7,30.4c6.8,10.5,13.6,21,20.3,31.6
	c6.5,10.2,13,20.3,19.6,30.4c3.7,5.7,7.5,11.5,11.2,17.2c1.3,2,2.6,4,3.9,6c6.2,9.5,12.3,19,18.4,28.6c5,7.8,10,15.5,15,23.2
	c0.5,0.8,1,1.5,1.5,2.3c0.4,0.7,0.9,1.3,1.3,2c1.3,2,1.3,2,2.3,4.6c1.7,2.5,1.7,2.5,3.8,2.9c2.5,0.2,5,0.2,7.5,0.2c1,0,1.9,0,2.9,0
	c3.3,0,6.6,0,9.9,0c2.4,0,4.7,0,7.1,0c5.2,0,10.3,0,15.5,0c7.7,0,15.4,0,23.1,0c12.9,0,25.9,0,38.8,0c12.8,0,25.6,0,38.4,0
	c1.2,0,1.2,0,2.4,0c4,0,8.1,0,12.1,0c28.6,0,57.3,0.1,85.9,0.1c27.8,0,55.6,0,83.5,0c0.9,0,1.7,0,2.6,0c8.6,0,17.2,0,25.8,0
	c17.5,0,35.1,0,52.6,0c0.8,0,1.6,0,2.4,0c53.9,0,107.7,0.1,161.6,0.1c-0.9,1.1-1.9,2.2-2.8,3.3c-0.5,0.6-1,1.2-1.6,1.9
	c-2.3,2.6-4.8,4.9-7.3,7.2c-0.5,0.5-1,0.9-1.6,1.4c-1.6,1.4-3.1,2.8-4.7,4.2c-1.3,1.2-1.3,1.2-2.6,2.4c-3.3,2.9-6.5,5.9-9.8,8.8
	c-4.6,4.1-9.2,8.3-13.7,12.5c-3.2,3-6.5,5.9-9.8,8.8c-4.2,3.6-8.2,7.4-12.3,11.2c-3.5,3.2-7,6.4-10.6,9.5c-2.9,2.6-5.8,5.2-8.7,7.9
	c-4.1,3.8-8.2,7.5-12.3,11.1c-2.9,2.6-5.8,5.2-8.7,7.9c-4.1,3.8-8.2,7.5-12.3,11.1c-2.9,2.6-5.8,5.2-8.7,7.9
	c-4.1,3.8-8.2,7.5-12.3,11.1c-2.9,2.6-5.8,5.2-8.7,7.9c-4.1,3.8-8.2,7.5-12.3,11.1c-2.9,2.6-5.8,5.2-8.7,7.9
	c-4.1,3.8-8.2,7.5-12.3,11.1c-2.9,2.6-5.8,5.2-8.7,7.9c-4.1,3.8-8.2,7.5-12.3,11.1c-2.9,2.6-5.8,5.2-8.7,7.9
	c-4.1,3.8-8.2,7.5-12.3,11.1c-2.9,2.6-5.8,5.2-8.7,7.9c-4.1,3.8-8.2,7.5-12.3,11.1c-2.9,2.6-5.8,5.2-8.7,7.9
	c-4.1,3.8-8.2,7.5-12.3,11.1c-2.9,2.6-5.8,5.2-8.7,7.9c-4.1,3.8-8.2,7.5-12.3,11.1c-2.9,2.6-5.8,5.2-8.7,7.9
	c-4.1,3.8-8.2,7.5-12.3,11.1c-2.9,2.6-5.8,5.2-8.7,7.9c-4.1,3.8-8.2,7.5-12.3,11.1c-2.9,2.6-5.8,5.2-8.7,7.9
	c-4.1,3.8-8.3,7.6-12.6,11.3c-3.7,3.2-7.3,6.4-10.9,9.7c3.6,6.4,7.3,12.6,11.4,18.7c4.5,6.7,8.9,13.5,13.2,20.3
	c5.2,8.2,10.5,16.4,15.8,24.5c5.9,9.1,11.8,18.2,17.6,27.4c5.7,9,11.6,17.9,17.4,26.9c6.8,10.5,13.6,21,20.3,31.6
	c6.5,10.2,13,20.3,19.6,30.4c3.7,5.7,7.5,11.5,11.2,17.2c1.3,2,2.6,4,3.9,6c5.5,8.4,10.9,16.9,16.3,25.4
	c6.5,10.2,13.1,20.3,19.7,30.4c6.8,10.5,13.6,21,20.3,31.6c6.5,10.2,13,20.3,19.6,30.4c3.7,5.7,7.5,11.5,11.2,17.2
	c1.3,2,2.6,4,3.9,6c5.5,8.4,10.9,16.9,16.3,25.4c6.5,10.2,13.1,20.3,19.7,30.4c6.8,10.5,13.6,21,20.3,31.6
	c6.5,10.2,13.1,20.3,19.7,30.4c6.8,10.4,13.5,20.9,20.2,31.4c5.8,9.1,11.7,18.1,17.6,27.2c5.5,8.4,11,16.9,16.4,25.5
	c0.6,1,1.3,2,1.9,3c0.6,0.9,1.2,1.8,1.8,2.8c1.3,2,2.7,4.1,4,6.1c1.5,2.4,1.5,2.4,1.5,4.4c-627,0-1254,0-1900,0
	c1.6-3.9,3-6.8,5.2-10.3c0.6-1,1.3-2,2-3.1c1-1.6,1-1.6,2.1-3.2c0.7-1.1,1.4-2.2,2.2-3.4c2.2-3.4,4.3-6.7,6.5-10.1
	c0.6-0.9,1.2-1.9,1.8-2.9c3.2-5,6.5-9.9,9.7-14.9c6.8-10.5,13.6-21,20.3-31.6c6.5-10.2,13.1-20.3,19.7-30.4
	c6.8-10.5,13.6-21,20.3-31.6c6.5-10.2,13-20.3,19.6-30.4c3.7-5.7,7.5-11.5,11.2-17.2c1.3-2,2.6-4,3.9-6c5.5-8.4,10.9-16.9,16.3-25.4
	c6.5-10.2,13.1-20.3,19.7-30.4c6.8-10.5,13.6-21,20.3-31.6c6.5-10.2,13.1-20.3,19.7-30.4c6.8-10.4,13.5-20.9,20.2-31.4
	c5.8-9.1,11.7-18.2,17.6-27.2c5.3-8.1,10.6-16.3,15.8-24.5c5.7-9,11.6-17.9,17.4-26.9c6.8-10.5,13.6-21,20.3-31.6
	c6.5-10.2,13-20.3,19.6-30.4c3.7-5.7,7.5-11.5,11.2-17.2c1.3-2,2.6-4,3.9-6c4.8-7.4,9.6-14.9,14.4-22.4c6.6-10.3,13.2-20.5,20-30.7
	c-2.3-3-4.5-5.6-7.4-8.1c-3.8-3.2-7.4-6.6-11.1-9.9c-3.5-3.2-6.9-6.4-10.5-9.5c-4.2-3.6-8.2-7.4-12.2-11.1c-2.9-2.7-5.8-5.3-8.8-7.9
	c-4.2-3.6-8.2-7.4-12.2-11.1c-2.9-2.7-5.8-5.3-8.8-7.9c-4.2-3.6-8.2-7.4-12.2-11.1c-2.9-2.7-5.8-5.3-8.8-7.9
	c-4.2-3.6-8.2-7.4-12.2-11.1c-2.9-2.7-5.8-5.3-8.8-7.9c-4.2-3.6-8.2-7.4-12.2-11.1c-2.9-2.7-5.8-5.3-8.8-7.9
	c-4.2-3.6-8.2-7.4-12.2-11.1c-2.9-2.7-5.8-5.3-8.8-7.9c-4.2-3.6-8.2-7.4-12.2-11.1c-2.9-2.7-5.8-5.3-8.8-7.9
	c-4.2-3.6-8.2-7.4-12.2-11.1c-2.9-2.7-5.8-5.3-8.8-7.9c-4.2-3.6-8.2-7.4-12.2-11.1c-2.9-2.7-5.8-5.3-8.8-7.9
	c-4.2-3.6-8.2-7.4-12.2-11.1c-2.9-2.7-5.8-5.3-8.8-7.9c-4.2-3.6-8.2-7.4-12.2-11.1c-2.9-2.7-5.8-5.3-8.8-7.9
	c-4.2-3.6-8.2-7.4-12.2-11.1c-2.9-2.7-5.8-5.3-8.8-7.9c-4.2-3.6-8.2-7.4-12.2-11.1c-2.9-2.7-5.8-5.3-8.8-7.9
	c-4.2-3.6-8.2-7.4-12.2-11.1c-2.9-2.7-5.8-5.3-8.8-7.9c-4.2-3.6-8.2-7.4-12.2-11.1c-2.9-2.7-5.8-5.3-8.8-7.9
	c-3.7-3.2-7.4-6.5-11-9.9c-0.9-0.8-0.9-0.8-1.8-1.6c-1.4-1.3-2.8-2.7-4.2-4c0-0.3,0-0.7,0-1c1.2,0,2.4,0,3.7,0
	c53.4,0.2,106.7,0.3,160.1,0.4c1.2,0,1.2,0,2.4,0c17.6,0,35.1,0,52.7,0c8.6,0,17.2,0,25.8,0c0.9,0,1.7,0,2.6,0
	c27.8,0,55.5,0.1,83.3,0.2c28.5,0.1,57.1,0.1,85.6,0.1c4,0,8.1,0,12.1,0c1.2,0,1.2,0,2.4,0c12.8,0,25.5,0,38.3,0.1
	c12.8,0.1,25.7,0.1,38.5,0c7.6,0,15.3,0,22.9,0.1c5.7,0.1,11.4,0,17.1,0c2.3,0,4.6,0,6.9,0.1c11.4,0.6,11.4,0.6,21.5-3.6
	c3.2-3.8,5.3-8,7.3-12.5c1.2-2.6,2.7-4.9,4.3-7.2c0.5-0.8,1-1.5,1.5-2.3c0.5-0.8,1-1.5,1.5-2.3c1.1-1.7,2.2-3.4,3.4-5.1
	c0.5-0.8,1.1-1.7,1.6-2.5c6.9-10.5,13.7-21.1,20.4-31.7c6.5-10.2,13.1-20.3,19.7-30.4c6.8-10.5,13.6-21,20.3-31.6
	c6.5-10.2,13-20.3,19.6-30.4c3.7-5.7,7.5-11.5,11.2-17.2c1.3-2,2.6-4,3.9-6c5.5-8.4,10.9-16.9,16.3-25.4
	c6.5-10.2,13.1-20.3,19.7-30.4c6.8-10.5,13.6-21,20.3-31.6c6.5-10.2,13.1-20.3,19.7-30.4c6.8-10.4,13.5-20.9,20.2-31.4
	c5.8-9.1,11.7-18.2,17.6-27.2c5.3-8.1,10.6-16.3,15.8-24.5c5.7-9,11.6-17.9,17.4-26.9c6.8-10.5,13.6-21,20.3-31.6
	c6.5-10.2,13-20.3,19.6-30.4c3.7-5.7,7.5-11.5,11.2-17.2c1.3-2,2.6-4,3.9-6c5.5-8.4,10.9-16.9,16.3-25.4c6-9.4,12-18.7,18.1-28
	c2.5-3.8,5-7.7,7.4-11.5C989.2,192.7,994.1,185.3,999,178z"/>
<path class="st1" d="M412,1088c4.8,3.4,9.1,7,13.2,11.2c2.4,2.4,4.9,4.5,7.4,6.7c3,2.6,5.9,5.4,8.9,8.1c3.5,3.2,6.9,6.4,10.5,9.5
	c4.2,3.6,8.2,7.4,12.2,11.1c2.9,2.7,5.8,5.3,8.8,7.9c4.2,3.6,8.2,7.4,12.2,11.1c2.9,2.7,5.8,5.3,8.8,7.9c4.2,3.6,8.2,7.4,12.2,11.1
	c2.9,2.7,5.8,5.3,8.8,7.9c4.2,3.6,8.2,7.4,12.2,11.1c2.9,2.7,5.8,5.3,8.8,7.9c4.2,3.6,8.2,7.4,12.2,11.1c2.9,2.7,5.8,5.3,8.8,7.9
	c4.2,3.6,8.2,7.4,12.2,11.1c2.9,2.7,5.8,5.3,8.8,7.9c4.2,3.6,8.2,7.4,12.2,11.1c2.9,2.7,5.8,5.3,8.8,7.9c4.2,3.6,8.2,7.4,12.2,11.1
	c2.9,2.7,5.8,5.3,8.8,7.9c4.2,3.6,8.2,7.4,12.2,11.1c2.9,2.7,5.8,5.3,8.8,7.9c4.2,3.6,8.2,7.4,12.2,11.1c3.5,3.2,7,6.4,10.6,9.5
	c5.1,4.5,10.2,9.3,15.2,13.9c4-1.2,7.6-2.7,11.3-4.6c1-0.5,2-1,3-1.6c1.1-0.6,2.1-1.1,3.2-1.7c1.1-0.6,2.2-1.2,3.4-1.8
	c6.8-3.6,13.6-7.3,20.4-11c10-5.5,20.2-10.8,30.4-16c0.8-0.4,1.6-0.8,2.5-1.3c3.2-1.6,6.4-3.3,9.6-4.9c10.6-5.4,21-10.9,31.5-16.6
	c2.3-1.2,4.6-2.5,6.9-3.7c0.9-0.5,0.9-0.5,1.8-1c10-5.4,20.1-10.6,30.2-15.8c1.1-0.5,1.1-0.5,2.1-1.1c2.8-1.4,5.5-2.8,8.3-4.3
	c10.3-5.3,20.5-10.7,30.7-16.2c12.9-6.9,25.8-13.8,38.9-20.5c0.7-0.4,1.4-0.7,2.1-1.1c2.8-1.4,5.5-2.8,8.3-4.3
	c11-5.7,21.9-11.4,32.8-17.3c3-1.6,6-3.2,9-4.8c1.2-0.6,2.4-1.3,3.6-1.9c0.9-0.5,0.9-0.5,1.8-1c4-2.1,8-4.3,12-6.5
	c2.1-1.1,4.1-2.2,6.2-3.4c0.9-0.5,1.9-1.1,2.8-1.6c6.4-3.4,6.4-3.4,10.2-3c1,0.5,2,1.1,3,1.7c0.8,0.4,1.5,0.8,2.3,1.1
	c2.8,1.4,5.6,2.9,8.4,4.4c1,0.5,2,1.1,3.1,1.6c2.1,1.1,4.2,2.2,6.3,3.3c2.6,1.4,5.1,2.7,7.7,4c6.9,3.6,13.7,7.2,20.5,10.9
	c12.9,6.9,25.8,13.8,38.8,20.5c0.7,0.4,1.4,0.7,2.1,1.1c2.8,1.4,5.5,2.8,8.3,4.3c10.3,5.3,20.5,10.7,30.7,16.2
	c12.9,6.9,25.8,13.8,38.9,20.5c1.1,0.5,1.1,0.5,2.1,1.1c2.8,1.4,5.5,2.8,8.3,4.3c10.3,5.3,20.5,10.7,30.7,16.2
	c12.9,6.9,25.8,13.8,38.9,20.5c1.1,0.5,1.1,0.5,2.1,1.1c2.8,1.4,5.5,2.8,8.3,4.3c5.1,2.6,10.2,5.3,15.3,8c0.7,0.4,1.4,0.7,2.1,1.1
	c4.1,2.2,8.2,4.4,12.3,6.6c2.6,1.4,5.1,2.8,7.7,4.1c1.9,1,3.7,2,5.6,3c1.1,0.6,2.3,1.2,3.5,1.9c1,0.6,2,1.1,3.1,1.7
	c2.9,1.4,5.8,2.5,8.9,3.4c0.5-0.5,1-1,1.5-1.5c3.9-4,8-7.8,12.2-11.4c3-2.6,5.9-5.3,8.8-8c4.1-3.8,8.2-7.5,12.3-11.1
	c2.9-2.6,5.8-5.2,8.7-7.9c4.1-3.8,8.2-7.5,12.3-11.1c2.9-2.6,5.8-5.2,8.7-7.9c4.1-3.8,8.2-7.5,12.3-11.1c2.9-2.6,5.8-5.2,8.7-7.9
	c4.1-3.8,8.2-7.5,12.3-11.1c2.9-2.6,5.8-5.2,8.7-7.9c4.1-3.8,8.2-7.5,12.3-11.1c2.9-2.6,5.8-5.2,8.7-7.9c4.1-3.8,8.2-7.5,12.3-11.1
	c2.9-2.6,5.8-5.2,8.7-7.9c4.1-3.8,8.2-7.5,12.3-11.1c2.9-2.6,5.8-5.2,8.7-7.9c4.1-3.8,8.2-7.5,12.3-11.1c2.9-2.6,5.8-5.2,8.7-7.9
	c4.1-3.8,8.2-7.5,12.3-11.1c2.9-2.6,5.8-5.2,8.7-7.9c4.1-3.8,8.2-7.5,12.3-11.1c2.9-2.6,5.8-5.2,8.7-7.9c4.1-3.8,8.1-7.5,12.3-11.1
	c1.8-1.6,3.5-3.2,5.3-4.8c0.6-0.5,1.1-1.1,1.7-1.6c1.1-1,2.2-2.1,3.3-3.1c3.7-3.5,7.6-6.5,11.8-9.3c8.4,11.7,16,23.8,23.7,35.9
	c0.7,1,1.3,2.1,2,3.2c0.7,1.1,1.4,2.1,2.1,3.2c5.1,8,10.3,16,15.5,24c5.3,8.1,10.6,16.3,15.8,24.5c5.7,9,11.6,17.9,17.4,26.9
	c6.8,10.5,13.6,21,20.3,31.6c6.5,10.2,13,20.3,19.6,30.4c3.7,5.7,7.5,11.5,11.2,17.2c1.3,2,2.6,4,3.9,6c5.5,8.4,10.9,16.9,16.3,25.4
	c6.5,10.2,13.1,20.3,19.7,30.4c6.8,10.5,13.6,21,20.3,31.6c6.5,10.2,13,20.3,19.6,30.4c3.7,5.7,7.5,11.5,11.2,17.2
	c1.3,2,2.6,4,3.9,6c5.5,8.4,10.9,16.9,16.3,25.4c6.5,10.2,13.1,20.3,19.7,30.4c6.8,10.5,13.6,21,20.3,31.6
	c6.5,10.2,13.1,20.3,19.7,30.4c6.8,10.4,13.5,20.9,20.2,31.4c5.8,9.1,11.7,18.1,17.6,27.2c5.5,8.4,11,16.9,16.4,25.5
	c0.6,1,1.3,2,1.9,3c0.6,0.9,1.2,1.8,1.8,2.8c1.3,2,2.7,4.1,4,6.1c1.5,2.4,1.5,2.4,1.5,4.4c-627,0-1254,0-1900,0
	c1.6-3.9,3-6.8,5.2-10.3c0.6-1,1.3-2,2-3.1c1-1.6,1-1.6,2.1-3.2c0.7-1.1,1.4-2.2,2.2-3.4c2.2-3.4,4.3-6.7,6.5-10.1
	c0.6-0.9,1.2-1.9,1.8-2.9c3.2-5,6.5-9.9,9.7-14.9c6.8-10.5,13.6-21,20.3-31.6c6.5-10.2,13.1-20.3,19.7-30.4
	c6.8-10.5,13.6-21,20.3-31.6c6.5-10.2,13-20.3,19.6-30.4c3.7-5.7,7.5-11.5,11.2-17.2c1.3-2,2.6-4,3.9-6c5.5-8.4,10.9-16.9,16.3-25.4
	c6.5-10.2,13.1-20.3,19.7-30.4c6.8-10.5,13.6-21,20.3-31.6c6.5-10.2,13.1-20.3,19.7-30.4c6.8-10.4,13.5-20.9,20.2-31.4
	c5.8-9.1,11.7-18.2,17.6-27.2c5.3-8.1,10.6-16.3,15.8-24.5c5.7-9,11.6-17.9,17.4-26.9c6.8-10.5,13.6-21,20.3-31.6
	c6.5-10.2,13-20.3,19.6-30.4c3.7-5.7,7.5-11.5,11.2-17.2c1.3-2,2.6-4,3.9-6c4.8-7.4,9.6-14.9,14.4-22.4c10.6-16.5,10.6-16.5,16-24.7
	c0.4-0.6,0.8-1.2,1.2-1.9C410.9,1089.1,410.9,1089.1,412,1088z"/>
<path class="st2" d="M999,178c3.6,1.2,4,2.1,5.9,5.2c0.8,1.3,0.8,1.3,1.7,2.7c0.6,1,1.2,1.9,1.8,2.9c1.3,2,2.5,4,3.8,6.1
	c0.6,1,1.3,2.1,1.9,3.1c2.8,4.5,5.7,8.9,8.6,13.3c1.1,1.7,2.2,3.3,3.2,5c0.8,1.2,0.8,1.2,1.6,2.4c6.8,10.4,13.5,20.9,20.3,31.4
	c5.8,9.1,11.7,18.2,17.6,27.2c5.3,8.1,10.6,16.3,15.8,24.5c5.7,9,11.6,17.9,17.4,26.9c6.8,10.5,13.6,21,20.3,31.6
	c6.5,10.2,13,20.3,19.6,30.4c3.7,5.7,7.5,11.5,11.2,17.2c1.3,2,2.6,4,3.9,6c5.5,8.4,10.9,16.9,16.3,25.4
	c6.5,10.2,13.1,20.3,19.7,30.4c6.8,10.5,13.6,21,20.3,31.6c6.5,10.2,13,20.3,19.6,30.4c3.7,5.7,7.5,11.5,11.2,17.2
	c1.3,2,2.6,4,3.9,6c5.5,8.4,10.9,16.9,16.3,25.4c6.5,10.2,13.1,20.3,19.7,30.4c6.8,10.5,13.6,21,20.3,31.6
	c6.5,10.2,13,20.3,19.6,30.4c3.7,5.7,7.5,11.5,11.2,17.2c1.3,2,2.6,4,3.9,6c6.2,9.5,12.3,19,18.4,28.6c3.3,5.1,6.6,10.2,9.9,15.3
	c0.6,0.9,1.2,1.8,1.8,2.7c1.1,1.7,2.2,3.4,3.3,5.1c0.5,0.8,1,1.5,1.5,2.3c0.4,0.6,0.9,1.3,1.3,2c1.6,2.6,2.9,5.4,4.3,8.1
	c-248.2,0-496.3,0-752,0c6.7-12.4,6.7-12.4,9.9-17.2c0.7-1.1,1.4-2.1,2.1-3.2c1.1-1.6,1.1-1.6,2.2-3.3c0.8-1.2,1.5-2.3,2.3-3.5
	c1.5-2.3,3-4.6,4.5-6.8c2.5-3.9,5.1-7.7,7.6-11.6c0.6-1,0.6-1,1.3-2c4.7-7.3,9.4-14.7,14.1-22c5.8-9.1,11.7-18.1,17.6-27.2
	c6.8-10.5,13.6-21,20.3-31.6c6.5-10.2,13-20.3,19.6-30.4c3.7-5.7,7.5-11.5,11.2-17.2c1.3-2,2.6-4,3.9-6c5.5-8.4,10.9-16.9,16.3-25.4
	c6.5-10.2,13.1-20.3,19.7-30.4c6.8-10.5,13.6-21,20.3-31.6c6.5-10.2,13.1-20.3,19.7-30.4c6.8-10.4,13.5-20.9,20.2-31.4
	c5.8-9.1,11.7-18.2,17.6-27.2c5.3-8.1,10.6-16.3,15.8-24.5c5.7-9,11.6-17.9,17.4-26.9c6.8-10.5,13.6-21,20.3-31.6
	c6.5-10.2,13-20.3,19.6-30.4c3.7-5.7,7.5-11.5,11.2-17.2c1.3-2,2.6-4,3.9-6c5.5-8.4,10.9-16.9,16.3-25.4c6-9.4,12-18.7,18.1-28
	c2.5-3.8,5-7.7,7.4-11.5C989.2,192.7,994.1,185.3,999,178z"/>
<rect x="7" y="1686" class="st3" width="2000" height="332"/>
<text transform="matrix(1 0 0 1 40.4346 1892.7676)" class="st0 st4 st5 st6">JOSHUA MA</text>
</svg>
