<?xml version="1.0" encoding="UTF-8"?>
<svg version="1.1" xmlns="http://www.w3.org/2000/svg" width="2000" height="2000">
<path d="M0 0 C3.59953227 1.19984409 3.95049673 2.05746376 5.8984375 5.20703125 C6.45362061 6.09366455 7.00880371 6.98029785 7.58081055 7.89379883 C8.46893433 9.33855591 8.46893433 9.33855591 9.375 10.8125 C10.63840152 12.83390951 11.90274473 14.85473072 13.16796875 16.875 C13.80782715 17.90109375 14.44768555 18.9271875 15.10693359 19.984375 C17.91664983 24.46020876 20.7974261 28.88828617 23.6875 33.3125 C24.76831874 34.97129581 25.84904922 36.63014912 26.9296875 38.2890625 C27.44756836 39.08344727 27.96544922 39.87783203 28.49902344 40.69628906 C35.30265904 51.13856388 42.04050162 61.62202671 48.75 72.125 C54.56520646 81.22685311 60.43686218 90.28947936 66.35009766 99.32788086 C71.67034508 107.47019078 76.91457881 115.65986658 82.14916992 123.85742188 C87.895422 132.85118873 93.70491532 141.80261717 99.53125 150.74462891 C106.36290562 161.23512668 113.13317835 171.76406614 119.875 182.3125 C126.37165098 192.4765411 132.92370315 202.60289841 139.50927734 212.70947266 C143.24573387 218.45061826 146.96031851 224.20595842 150.67919922 229.95849609 C151.9734554 231.95897117 153.26961316 233.95819997 154.56640625 235.95703125 C160.03421658 244.38879737 165.46336293 252.84456305 170.875 261.3125 C177.37904077 271.48820144 183.9384521 281.62628188 190.53125 291.74462891 C197.36290562 302.23512668 204.13317835 312.76406614 210.875 323.3125 C217.37165098 333.4765411 223.92370315 343.60289841 230.50927734 353.70947266 C234.24573387 359.45061826 237.96031851 365.20595842 241.67919922 370.95849609 C242.9734554 372.95897117 244.26961316 374.95819997 245.56640625 376.95703125 C251.03421658 385.38879737 256.46336293 393.84456305 261.875 402.3125 C268.37904077 412.48820144 274.9384521 422.62628188 281.53125 432.74462891 C288.36290562 443.23512668 295.13317835 453.76406614 301.875 464.3125 C308.37165098 474.4765411 314.92370315 484.60289841 321.50927734 494.70947266 C325.24573387 500.45061826 328.96031851 506.20595842 332.67919922 511.95849609 C333.9734554 513.95897117 335.26961316 515.95819997 336.56640625 517.95703125 C342.72550827 527.45482006 348.83227934 536.9853488 354.92724609 546.52441406 C359.88839702 554.28176392 364.88862179 562.01271911 369.92724609 569.7199707 C370.4217627 570.47753662 370.9162793 571.23510254 371.42578125 572.015625 C371.85286377 572.66821289 372.27994629 573.32080078 372.7199707 573.99316406 C374 576 374 576 374.99665719 578.58599871 C376.69346474 581.11197444 376.69346474 581.11197444 378.8217332 581.46436159 C381.33740649 581.64817837 383.8111286 581.66271249 386.33351421 581.63085651 C387.30610224 581.63831411 388.27869027 581.6457717 389.28075066 581.65345529 C392.57155272 581.67251163 395.86122037 581.65565001 399.15202332 581.63923645 C401.52225453 581.64554191 403.89248077 581.65404092 406.26269704 581.66455668 C411.43223988 581.68243166 416.60155152 581.68469049 421.77110291 581.67340279 C429.4580463 581.65670199 437.14475852 581.66853545 444.83169 581.68631649 C457.76103005 581.71541084 470.69028337 581.72121398 483.61964989 581.71384621 C496.42549417 581.70662456 509.23126755 581.70969167 522.03710365 581.72656822 C523.2304389 581.72813219 523.2304389 581.72813219 524.44788193 581.72972776 C528.48794105 581.73507635 532.52799988 581.74060942 536.56805865 581.74621352 C565.2005658 581.78559857 593.83304403 581.80181186 622.46557617 581.80444336 C650.2855798 581.80705309 678.10554625 581.82013058 705.92553711 581.84741211 C706.78273062 581.84824853 707.63992414 581.84908496 708.52309322 581.84994673 C717.13120611 581.85835786 725.73931878 581.86698215 734.34743131 581.87576263 C751.88390753 581.89364541 769.420385 581.91010525 786.9568634 581.92570496 C787.76320218 581.926424 788.56954095 581.92714303 789.40031423 581.92788386 C843.26686373 581.97575532 897.13343175 581.99035058 951 582 C950.06135676 583.11039931 949.12048888 584.21891828 948.17871094 585.32666016 C947.65500916 585.94417145 947.13130737 586.56168274 946.59173584 587.19790649 C944.30939808 589.7818692 941.81111267 592.0699986 939.25 594.375 C938.73195801 594.84341309 938.21391602 595.31182617 937.68017578 595.79443359 C936.12366913 597.20029519 934.56215558 598.6004217 933 600 C931.68902344 601.18335938 931.68902344 601.18335938 930.3515625 602.390625 C927.0997627 605.32442545 923.83871993 608.24785762 920.578125 611.171875 C915.98551896 615.29644476 911.41820551 619.44621893 906.875 623.625 C903.63782784 626.60218281 900.38862271 629.55952856 897.0625 632.4375 C892.87890143 636.06212089 888.8356539 639.83385067 884.77758789 643.59741211 C881.28928664 646.82675871 877.7526582 649.98499037 874.15625 653.09375 C871.22759638 655.68284958 868.36601823 658.34194681 865.5 661 C861.43985037 664.7655356 857.34588598 668.47220026 853.15625 672.09375 C850.22759638 674.68284958 847.36601823 677.34194681 844.5 680 C840.43985037 683.7655356 836.34588598 687.47220026 832.15625 691.09375 C829.22759638 693.68284958 826.36601823 696.34194681 823.5 699 C819.43985037 702.7655356 815.34588598 706.47220026 811.15625 710.09375 C808.22759638 712.68284958 805.36601823 715.34194681 802.5 718 C798.43985037 721.7655356 794.34588598 725.47220026 790.15625 729.09375 C787.22759638 731.68284958 784.36601823 734.34194681 781.5 737 C777.43985037 740.7655356 773.34588598 744.47220026 769.15625 748.09375 C766.22759638 750.68284958 763.36601823 753.34194681 760.5 756 C756.43985037 759.7655356 752.34588598 763.47220026 748.15625 767.09375 C745.22759638 769.68284958 742.36601823 772.34194681 739.5 775 C735.43985037 778.7655356 731.34588598 782.47220026 727.15625 786.09375 C724.22759638 788.68284958 721.36601823 791.34194681 718.5 794 C714.43985037 797.7655356 710.34588598 801.47220026 706.15625 805.09375 C703.22759638 807.68284958 700.36601823 810.34194681 697.5 813 C693.43985037 816.7655356 689.34588598 820.47220026 685.15625 824.09375 C682.22759638 826.68284958 679.36601823 829.34194681 676.5 832 C672.43985037 835.7655356 668.34588598 839.47220026 664.15625 843.09375 C661.22759638 845.68284958 658.36601823 848.34194681 655.5 851 C651.43985037 854.7655356 647.34588598 858.47220026 643.15625 862.09375 C640.22759638 864.68284958 637.36601823 867.34194681 634.5 870 C630.43985037 873.7655356 626.34588598 877.47220026 622.15625 881.09375 C619.22759437 883.68285135 616.36607843 886.34200895 613.5 889 C609.35859224 892.83935637 605.19265958 896.63615998 600.921875 900.33203125 C597.24982278 903.51895462 593.62978757 906.76511988 590 910 C593.59293368 916.38875956 597.33459558 922.61404929 601.4375 928.6875 C605.96420415 935.38936217 610.33997385 942.18066758 614.6875 949 C619.914956 957.19560342 625.17685021 965.36621585 630.5 973.5 C636.44197374 982.58195828 642.3081914 991.71024238 648.14916992 1000.85742188 C653.895422 1009.85118873 659.70491532 1018.80261717 665.53125 1027.74462891 C672.36290562 1038.23512668 679.13317835 1048.76406614 685.875 1059.3125 C692.37165098 1069.4765411 698.92370315 1079.60289841 705.50927734 1089.70947266 C709.24573387 1095.45061826 712.96031851 1101.20595842 716.67919922 1106.95849609 C717.9734554 1108.95897117 719.26961316 1110.95819997 720.56640625 1112.95703125 C726.03421658 1121.38879737 731.46336293 1129.84456305 736.875 1138.3125 C743.37904077 1148.48820144 749.9384521 1158.62628188 756.53125 1168.74462891 C763.36290562 1179.23512668 770.13317835 1189.76406614 776.875 1200.3125 C783.37165098 1210.4765411 789.92370315 1220.60289841 796.50927734 1230.70947266 C800.24573387 1236.45061826 803.96031851 1242.20595842 807.67919922 1247.95849609 C808.9734554 1249.95897117 810.26961316 1251.95819997 811.56640625 1253.95703125 C817.03421658 1262.38879737 822.46336293 1270.84456305 827.875 1279.3125 C834.37904077 1289.48820144 840.9384521 1299.62628188 847.53125 1309.74462891 C854.36290562 1320.23512668 861.13317835 1330.76406614 867.875 1341.3125 C874.3790858 1351.48817292 880.93845184 1361.62628148 887.53125 1371.74462891 C894.32194674 1382.17223138 901.05091618 1392.63832956 907.75 1403.125 C913.55864046 1412.21657613 919.42296982 1421.26943646 925.33032227 1430.29711914 C930.85180805 1438.74625607 936.29578494 1447.24382207 941.72265625 1455.75390625 C942.35429688 1456.74390625 942.9859375 1457.73390625 943.63671875 1458.75390625 C944.22243652 1459.67316895 944.8081543 1460.59243164 945.41162109 1461.53955078 C946.72923923 1463.580583 948.07874995 1465.58973602 949.45703125 1467.58984375 C951 1470 951 1470 951 1472 C324 1472 -303 1472 -949 1472 C-947.44051977 1468.10129943 -945.99835761 1465.21049528 -943.76171875 1461.74609375 C-943.11291748 1460.73675781 -942.46411621 1459.72742187 -941.7956543 1458.6875 C-940.75211792 1457.07875 -940.75211792 1457.07875 -939.6875 1455.4375 C-938.9629571 1454.31402156 -938.23875854 1453.19032097 -937.51489258 1452.06640625 C-935.3492081 1448.70706512 -933.17524149 1445.35316099 -931 1442 C-930.39027344 1441.05914551 -929.78054688 1440.11829102 -929.15234375 1439.14892578 C-925.9309587 1434.18017783 -922.70144104 1429.21676841 -919.46875 1424.25537109 C-912.63709438 1413.76487332 -905.86682165 1403.23593386 -899.125 1392.6875 C-892.6209142 1382.51182708 -886.06154816 1372.37371852 -879.46875 1362.25537109 C-872.63709438 1351.76487332 -865.86682165 1341.23593386 -859.125 1330.6875 C-852.62834902 1320.5234589 -846.07629685 1310.39710159 -839.49072266 1300.29052734 C-835.75426613 1294.54938174 -832.03968149 1288.79404158 -828.32080078 1283.04150391 C-827.0265446 1281.04102883 -825.73038684 1279.04180003 -824.43359375 1277.04296875 C-818.96578342 1268.61120263 -813.53663707 1260.15543695 -808.125 1251.6875 C-801.62095923 1241.51179856 -795.0615479 1231.37371812 -788.46875 1221.25537109 C-781.63709438 1210.76487332 -774.86682165 1200.23593386 -768.125 1189.6875 C-761.6209142 1179.51182708 -755.06154816 1169.37371852 -748.46875 1159.25537109 C-741.67805326 1148.82776862 -734.94908382 1138.36167044 -728.25 1127.875 C-722.43479354 1118.77314689 -716.56313782 1109.71052064 -710.64990234 1100.67211914 C-705.32965492 1092.52980922 -700.08542119 1084.34013342 -694.85083008 1076.14257812 C-689.104578 1067.14881127 -683.29508468 1058.19738283 -677.46875 1049.25537109 C-670.63709438 1038.76487332 -663.86682165 1028.23593386 -657.125 1017.6875 C-650.62834902 1007.5234589 -644.07629685 997.39710159 -637.49072266 987.29052734 C-633.75426613 981.54938174 -630.03968149 975.79404158 -626.32080078 970.04150391 C-625.0265446 968.04102883 -623.73038684 966.04180003 -622.43359375 964.04296875 C-617.60581186 956.59783486 -612.80611572 949.13568786 -608.03198242 941.65600586 C-601.4615598 931.3634415 -594.84170927 921.11454615 -588 911 C-590.30319699 908.02146735 -592.54781205 905.35093649 -595.4375 902.9375 C-599.21193419 899.71335715 -602.86426565 896.37823574 -606.5 893 C-609.96252993 889.78805759 -613.4265013 886.58895651 -617 883.5 C-621.16566161 879.89917386 -625.18600048 876.14609026 -629.22265625 872.40234375 C-632.11381617 869.72584071 -635.01898132 867.07681276 -638 864.5 C-642.16566161 860.89917386 -646.18600048 857.14609026 -650.22265625 853.40234375 C-653.11381617 850.72584071 -656.01898132 848.07681276 -659 845.5 C-663.16566161 841.89917386 -667.18600048 838.14609026 -671.22265625 834.40234375 C-674.11381617 831.72584071 -677.01898132 829.07681276 -680 826.5 C-684.16566161 822.89917386 -688.18600048 819.14609026 -692.22265625 815.40234375 C-695.11381617 812.72584071 -698.01898132 810.07681276 -701 807.5 C-705.16566161 803.89917386 -709.18600048 800.14609026 -713.22265625 796.40234375 C-716.11381617 793.72584071 -719.01898132 791.07681276 -722 788.5 C-726.16566161 784.89917386 -730.18600048 781.14609026 -734.22265625 777.40234375 C-737.11381617 774.72584071 -740.01898132 772.07681276 -743 769.5 C-747.16566161 765.89917386 -751.18600048 762.14609026 -755.22265625 758.40234375 C-758.11381617 755.72584071 -761.01898132 753.07681276 -764 750.5 C-768.16566161 746.89917386 -772.18600048 743.14609026 -776.22265625 739.40234375 C-779.11381617 736.72584071 -782.01898132 734.07681276 -785 731.5 C-789.16566161 727.89917386 -793.18600048 724.14609026 -797.22265625 720.40234375 C-800.11381617 717.72584071 -803.01898132 715.07681276 -806 712.5 C-810.16566161 708.89917386 -814.18600048 705.14609026 -818.22265625 701.40234375 C-821.11381617 698.72584071 -824.01898132 696.07681276 -827 693.5 C-831.16566161 689.89917386 -835.18600048 686.14609026 -839.22265625 682.40234375 C-842.11381617 679.72584071 -845.01898132 677.07681276 -848 674.5 C-852.16566161 670.89917386 -856.18600048 667.14609026 -860.22265625 663.40234375 C-863.11381617 660.72584071 -866.01898132 658.07681276 -869 655.5 C-873.16566161 651.89917386 -877.18600048 648.14609026 -881.22265625 644.40234375 C-884.11381617 641.72584071 -887.01898132 639.07681276 -890 636.5 C-894.16566161 632.89917386 -898.18600048 629.14609026 -902.22265625 625.40234375 C-905.11381617 622.72584071 -908.01898132 620.07681276 -911 617.5 C-915.16566161 613.89917386 -919.18600048 610.14609026 -923.22265625 606.40234375 C-926.11381617 603.72584071 -929.01898132 601.07681276 -932 598.5 C-935.72559979 595.27221742 -939.36751362 591.95673214 -943 588.625 C-943.88365234 587.8196582 -943.88365234 587.8196582 -944.78515625 586.99804688 C-946.20969481 585.68632639 -947.60755829 584.34574397 -949 583 C-949 582.67 -949 582.34 -949 582 C-947.78923062 582.00395956 -946.57846124 582.00791911 -945.33100188 582.01199865 C-891.97185557 582.18544665 -838.61268273 582.33906269 -785.25326538 582.39147949 C-784.04155221 582.39267826 -784.04155221 582.39267826 -782.80535999 582.39390124 C-765.2495856 582.41115042 -747.69381012 582.42484012 -730.13803015 582.434863 C-721.52870584 582.43979987 -712.91938213 582.44552331 -704.31005859 582.45166016 C-703.45332648 582.45225746 -702.59659436 582.45285476 -701.71390067 582.45347016 C-673.94355764 582.47319997 -646.17364381 582.54487163 -618.40347822 582.64347418 C-589.86646375 582.74452526 -561.32982815 582.79318471 -532.79262828 582.77590374 C-528.76216714 582.7734875 -524.73170594 582.77167031 -520.70124435 582.7702179 C-519.51136314 582.76976132 -519.51136314 582.76976132 -518.29744391 582.76929552 C-505.52688984 582.765936 -492.7571287 582.81781985 -479.98680506 582.8903552 C-467.14876962 582.96209649 -454.31171712 582.97565619 -441.47355361 582.92985225 C-433.8448662 582.90440233 -426.21932687 582.92353511 -418.59103298 583.00659877 C-412.89433933 583.06371421 -407.20046932 583.03730496 -401.50390618 582.97845012 C-399.19953214 582.96767437 -396.89483993 582.9840127 -394.59090133 583.03008574 C-383.20397305 583.6798778 -383.20397305 583.6798778 -373.12031505 579.42256486 C-369.90609462 575.62722008 -367.77619644 571.45741204 -365.84444587 566.89999813 C-364.68826402 564.29859591 -363.17103634 562.00478425 -361.56640625 559.66015625 C-361.06906982 558.89743408 -360.5717334 558.13471191 -360.05932617 557.34887695 C-359.56537354 556.59437256 -359.0714209 555.83986816 -358.5625 555.0625 C-357.44518427 553.34904194 -356.32799876 551.63549897 -355.2109375 549.921875 C-354.66791992 549.08978516 -354.12490234 548.25769531 -353.56542969 547.40039062 C-346.69518639 536.86573185 -339.8980759 526.28483509 -333.125 515.6875 C-326.6209142 505.51182708 -320.06154816 495.37371852 -313.46875 485.25537109 C-306.63709438 474.76487332 -299.86682165 464.23593386 -293.125 453.6875 C-286.62834902 443.5234589 -280.07629685 433.39710159 -273.49072266 423.29052734 C-269.75426613 417.54938174 -266.03968149 411.79404158 -262.32080078 406.04150391 C-261.0265446 404.04102883 -259.73038684 402.04180003 -258.43359375 400.04296875 C-252.96578342 391.61120263 -247.53663707 383.15543695 -242.125 374.6875 C-235.62095923 364.51179856 -229.0615479 354.37371812 -222.46875 344.25537109 C-215.63709438 333.76487332 -208.86682165 323.23593386 -202.125 312.6875 C-195.6209142 302.51182708 -189.06154816 292.37371852 -182.46875 282.25537109 C-175.67805326 271.82776862 -168.94908382 261.36167044 -162.25 250.875 C-156.43479354 241.77314689 -150.56313782 232.71052064 -144.64990234 223.67211914 C-139.32965492 215.52980922 -134.08542119 207.34013342 -128.85083008 199.14257812 C-123.104578 190.14881127 -117.29508468 181.19738283 -111.46875 172.25537109 C-104.63709438 161.76487332 -97.86682165 151.23593386 -91.125 140.6875 C-84.62834902 130.5234589 -78.07629685 120.39710159 -71.49072266 110.29052734 C-67.75426613 104.54938174 -64.03968149 98.79404158 -60.32080078 93.04150391 C-59.0265446 91.04102883 -57.73038684 89.04180003 -56.43359375 87.04296875 C-50.96578342 78.61120263 -45.53663707 70.15543695 -40.125 61.6875 C-34.13523508 52.31639338 -28.1035971 42.97401468 -22.03125 33.65625 C-19.54108131 29.83501927 -17.06356298 26.0057929 -14.59033203 22.17358398 C-9.79147462 14.73811105 -4.93827573 7.34373956 0 0 Z " fill="#92E4A4" transform="translate(999,178)"/>
<path d="M0 0 C4.82029412 3.41802674 9.12988831 6.99299018 13.2421875 11.234375 C15.59479156 13.59743508 18.10810489 15.7420048 20.6328125 17.91796875 C23.63721784 20.56045727 26.56753928 23.27819734 29.5 26 C32.96272791 29.21174153 36.42649069 32.41103433 40 35.5 C44.16566161 39.10082614 48.18600048 42.85390974 52.22265625 46.59765625 C55.11381617 49.27415929 58.01898132 51.92318724 61 54.5 C65.16566161 58.10082614 69.18600048 61.85390974 73.22265625 65.59765625 C76.11381617 68.27415929 79.01898132 70.92318724 82 73.5 C86.16566161 77.10082614 90.18600048 80.85390974 94.22265625 84.59765625 C97.11381617 87.27415929 100.01898132 89.92318724 103 92.5 C107.16566161 96.10082614 111.18600048 99.85390974 115.22265625 103.59765625 C118.11381617 106.27415929 121.01898132 108.92318724 124 111.5 C128.16566161 115.10082614 132.18600048 118.85390974 136.22265625 122.59765625 C139.11381617 125.27415929 142.01898132 127.92318724 145 130.5 C149.16566161 134.10082614 153.18600048 137.85390974 157.22265625 141.59765625 C160.11381617 144.27415929 163.01898132 146.92318724 166 149.5 C170.16566161 153.10082614 174.18600048 156.85390974 178.22265625 160.59765625 C181.11381617 163.27415929 184.01898132 165.92318724 187 168.5 C191.16566161 172.10082614 195.18600048 175.85390974 199.22265625 179.59765625 C202.11381617 182.27415929 205.01898132 184.92318724 208 187.5 C212.16566161 191.10082614 216.18600048 194.85390974 220.22265625 198.59765625 C223.11381617 201.27415929 226.01898132 203.92318724 229 206.5 C233.16566161 210.10082614 237.18600048 213.85390974 241.22265625 217.59765625 C244.70071922 220.81748717 248.22633543 223.96715627 251.8125 227.06640625 C256.95978515 231.61623866 261.96548671 236.32619117 267 241 C270.96986057 239.756333 274.59593071 238.30885961 278.28125 236.3828125 C279.27543945 235.86509277 280.26962891 235.34737305 281.29394531 234.81396484 C282.35194336 234.25660645 283.40994141 233.69924805 284.5 233.125 C285.61729492 232.54057129 286.73458984 231.95614258 287.88574219 231.35400391 C294.7158115 227.76845972 301.49620132 224.10168593 308.25 220.375 C318.29164351 214.83726624 328.48016454 209.59839095 338.6875 204.375 C339.50213715 203.95808899 340.31677429 203.54117798 341.15609741 203.1116333 C344.34053869 201.48214813 347.5250619 199.85282322 350.70973206 198.2237854 C361.26613588 192.82095202 371.75058235 187.29067756 382.19140625 181.66796875 C384.5024158 180.42412719 386.81354934 179.18052117 389.125 177.9375 C389.99983032 177.46692673 389.99983032 177.46692673 390.89233398 176.98684692 C400.89400708 171.61233542 410.96213919 166.37387682 421.0625 161.1875 C422.12617294 160.64127487 422.12617294 160.64127487 423.21133423 160.08401489 C425.97286792 158.6660712 428.73445757 157.24823655 431.49613953 155.83058167 C441.78863453 150.54420023 452.01979329 145.14653806 462.20703125 139.66015625 C475.10102022 132.71930605 488.03582103 125.87649529 501.0625 119.1875 C501.7716153 118.82334991 502.48073059 118.45919983 503.21133423 118.08401489 C505.97286792 116.6660712 508.73445757 115.24823655 511.49613953 113.83058167 C522.49944214 108.17911867 533.42612252 102.3882466 544.32402039 96.53639221 C547.32994903 94.92234896 550.33706707 93.31062765 553.34741211 91.70483398 C554.54153309 91.06760026 555.73562496 90.43031197 556.9296875 89.79296875 C557.81452568 89.32080177 557.81452568 89.32080177 558.71723938 88.83909607 C562.72900685 86.69336945 566.71519607 84.50454492 570.6953125 82.30078125 C572.7550501 81.1793968 574.81493805 80.05828848 576.875 78.9375 C577.81311523 78.40656738 578.75123047 77.87563477 579.71777344 77.32861328 C586.09752538 73.89417623 586.09752538 73.89417623 589.96484375 74.34765625 C590.96644531 74.89292969 591.96804688 75.43820312 593 76 C593.76086914 76.37890381 594.52173828 76.75780762 595.30566406 77.14819336 C598.12376024 78.55594015 600.90547198 80.02231379 603.6875 81.5 C604.71206299 82.03971436 605.73662598 82.57942871 606.79223633 83.13549805 C608.88328962 84.23742778 610.97338448 85.34117824 613.0625 86.44677734 C615.6218677 87.80006003 618.18454122 89.1465948 620.75 90.48828125 C627.60214904 94.07492363 634.43684618 97.69182802 641.24609375 101.359375 C654.12624155 108.29526854 667.04876166 115.13014952 680.0625 121.8125 C680.7716153 122.17665009 681.48073059 122.54080017 682.21133423 122.91598511 C684.97286792 124.3339288 687.73445757 125.75176345 690.49613953 127.16941833 C700.78863453 132.45579977 711.01979329 137.85346194 721.20703125 143.33984375 C734.10102022 150.28069395 747.03582103 157.12350471 760.0625 163.8125 C761.12617294 164.35872513 761.12617294 164.35872513 762.21133423 164.91598511 C764.97286792 166.3339288 767.73445757 167.75176345 770.49613953 169.16941833 C780.78863453 174.45579977 791.01979329 179.85346194 801.20703125 185.33984375 C814.10102022 192.28069395 827.03582103 199.12350471 840.0625 205.8125 C841.12617294 206.35872513 841.12617294 206.35872513 842.21133423 206.91598511 C844.97286792 208.3339288 847.73445757 209.75176345 850.49613953 211.16941833 C855.61388201 213.79796844 860.7213496 216.44523678 865.8125 219.125 C866.51020508 219.49214111 867.20791016 219.85928223 867.92675781 220.23754883 C872.0482135 222.41575395 876.15463142 224.62088295 880.25483704 226.83883667 C882.80501541 228.21806259 885.35685086 229.59421156 887.90853882 230.97064209 C889.76963037 231.97682296 891.62765771 232.98849945 893.4855957 234.00048828 C894.63116943 234.61907715 895.77674316 235.23766602 896.95703125 235.875 C897.97772705 236.42929688 898.99842285 236.98359375 900.05004883 237.5546875 C902.98272819 238.99153777 905.88125873 240.04297819 909 241 C909.4846875 240.50371094 909.969375 240.00742188 910.46875 239.49609375 C914.40557295 235.50627511 918.41927608 231.70058309 922.66796875 228.046875 C925.66270063 225.41833312 928.57975602 222.71073282 931.5 220 C935.55996398 216.23426969 939.65412164 212.52779316 943.84375 208.90625 C946.77240362 206.31715042 949.63398177 203.65805319 952.5 201 C956.56014963 197.2344644 960.65411402 193.52779974 964.84375 189.90625 C967.77240362 187.31715042 970.63398177 184.65805319 973.5 182 C977.56014963 178.2344644 981.65411402 174.52779974 985.84375 170.90625 C988.77240362 168.31715042 991.63398177 165.65805319 994.5 163 C998.56014963 159.2344644 1002.65411402 155.52779974 1006.84375 151.90625 C1009.77240362 149.31715042 1012.63398177 146.65805319 1015.5 144 C1019.56014963 140.2344644 1023.65411402 136.52779974 1027.84375 132.90625 C1030.77240362 130.31715042 1033.63398177 127.65805319 1036.5 125 C1040.56014963 121.2344644 1044.65411402 117.52779974 1048.84375 113.90625 C1051.77240362 111.31715042 1054.63398177 108.65805319 1057.5 106 C1061.56014963 102.2344644 1065.65411402 98.52779974 1069.84375 94.90625 C1072.77240362 92.31715042 1075.63398177 89.65805319 1078.5 87 C1082.56014963 83.2344644 1086.65411402 79.52779974 1090.84375 75.90625 C1093.77240362 73.31715042 1096.63398177 70.65805319 1099.5 68 C1103.56014963 64.2344644 1107.65411402 60.52779974 1111.84375 56.90625 C1114.77240362 54.31715042 1117.63398177 51.65805319 1120.5 49 C1124.56014963 45.2344644 1128.65411402 41.52779974 1132.84375 37.90625 C1135.77240362 35.31715042 1138.63398177 32.65805319 1141.5 30 C1145.55818278 26.23628853 1149.64715881 22.52813911 1153.83984375 18.9140625 C1155.62917222 17.32858158 1157.3833766 15.7189694 1159.12890625 14.0859375 C1159.69416016 13.55806641 1160.25941406 13.03019531 1160.84179688 12.48632812 C1161.95452759 11.44432718 1163.06412926 10.39897028 1164.16992188 9.34960938 C1167.8981891 5.86039257 1171.79308098 2.8965672 1176 0 C1184.39190247 11.65701128 1191.98725615 23.84860982 1199.71899414 35.94702148 C1200.38922607 36.99575439 1201.05945801 38.0444873 1201.75 39.125 C1202.43118896 40.19113525 1203.11237793 41.25727051 1203.81420898 42.35571289 C1208.94587374 50.37752158 1214.13663152 58.3590793 1219.35009766 66.32788086 C1224.67034508 74.47019078 1229.91457881 82.65986658 1235.14916992 90.85742188 C1240.895422 99.85118873 1246.70491532 108.80261717 1252.53125 117.74462891 C1259.36290562 128.23512668 1266.13317835 138.76406614 1272.875 149.3125 C1279.37165098 159.4765411 1285.92370315 169.60289841 1292.50927734 179.70947266 C1296.24573387 185.45061826 1299.96031851 191.20595842 1303.67919922 196.95849609 C1304.9734554 198.95897117 1306.26961316 200.95819997 1307.56640625 202.95703125 C1313.03421658 211.38879737 1318.46336293 219.84456305 1323.875 228.3125 C1330.37904077 238.48820144 1336.9384521 248.62628188 1343.53125 258.74462891 C1350.36290562 269.23512668 1357.13317835 279.76406614 1363.875 290.3125 C1370.37165098 300.4765411 1376.92370315 310.60289841 1383.50927734 320.70947266 C1387.24573387 326.45061826 1390.96031851 332.20595842 1394.67919922 337.95849609 C1395.9734554 339.95897117 1397.26961316 341.95819997 1398.56640625 343.95703125 C1404.03421658 352.38879737 1409.46336293 360.84456305 1414.875 369.3125 C1421.37904077 379.48820144 1427.9384521 389.62628188 1434.53125 399.74462891 C1441.36290562 410.23512668 1448.13317835 420.76406614 1454.875 431.3125 C1461.3790858 441.48817292 1467.93845184 451.62628148 1474.53125 461.74462891 C1481.32194674 472.17223138 1488.05091618 482.63832956 1494.75 493.125 C1500.55864046 502.21657613 1506.42296982 511.26943646 1512.33032227 520.29711914 C1517.85180805 528.74625607 1523.29578494 537.24382207 1528.72265625 545.75390625 C1529.35429688 546.74390625 1529.9859375 547.73390625 1530.63671875 548.75390625 C1531.22243652 549.67316895 1531.8081543 550.59243164 1532.41162109 551.53955078 C1533.72923923 553.580583 1535.07874995 555.58973602 1536.45703125 557.58984375 C1538 560 1538 560 1538 562 C911 562 284 562 -362 562 C-360.44051977 558.10129943 -358.99835761 555.21049528 -356.76171875 551.74609375 C-356.11291748 550.73675781 -355.46411621 549.72742187 -354.7956543 548.6875 C-353.75211792 547.07875 -353.75211792 547.07875 -352.6875 545.4375 C-351.9629571 544.31402156 -351.23875854 543.19032097 -350.51489258 542.06640625 C-348.3492081 538.70706512 -346.17524149 535.35316099 -344 532 C-343.39027344 531.05914551 -342.78054688 530.11829102 -342.15234375 529.14892578 C-338.9309587 524.18017783 -335.70144104 519.21676841 -332.46875 514.25537109 C-325.63709438 503.76487332 -318.86682165 493.23593386 -312.125 482.6875 C-305.6209142 472.51182708 -299.06154816 462.37371852 -292.46875 452.25537109 C-285.63709438 441.76487332 -278.86682165 431.23593386 -272.125 420.6875 C-265.62834902 410.5234589 -259.07629685 400.39710159 -252.49072266 390.29052734 C-248.75426613 384.54938174 -245.03968149 378.79404158 -241.32080078 373.04150391 C-240.0265446 371.04102883 -238.73038684 369.04180003 -237.43359375 367.04296875 C-231.96578342 358.61120263 -226.53663707 350.15543695 -221.125 341.6875 C-214.62095923 331.51179856 -208.0615479 321.37371812 -201.46875 311.25537109 C-194.63709438 300.76487332 -187.86682165 290.23593386 -181.125 279.6875 C-174.6209142 269.51182708 -168.06154816 259.37371852 -161.46875 249.25537109 C-154.67805326 238.82776862 -147.94908382 228.36167044 -141.25 217.875 C-135.43479354 208.77314689 -129.56313782 199.71052064 -123.64990234 190.67211914 C-118.32965492 182.52980922 -113.08542119 174.34013342 -107.85083008 166.14257812 C-102.104578 157.14881127 -96.29508468 148.19738283 -90.46875 139.25537109 C-83.63709438 128.76487332 -76.86682165 118.23593386 -70.125 107.6875 C-63.62834902 97.5234589 -57.07629685 87.39710159 -50.49072266 77.29052734 C-46.75426613 71.54938174 -43.03968149 65.79404158 -39.32080078 60.04150391 C-38.0265446 58.04102883 -36.73038684 56.04180003 -35.43359375 54.04296875 C-30.60587301 46.59792916 -25.80615489 39.13593007 -21.03222656 31.65625 C-10.47799756 15.12375143 -10.47799756 15.12375143 -5.0625 7 C-4.65572021 6.38946777 -4.24894043 5.77893555 -3.82983398 5.14990234 C-1.13684703 1.13684703 -1.13684703 1.13684703 0 0 Z " fill="#FEFEFE" transform="translate(412,1088)"/>
<path d="M0 0 C3.59953227 1.19984409 3.95049673 2.05746376 5.8984375 5.20703125 C6.73121216 6.5369812 6.73121216 6.5369812 7.58081055 7.89379883 C8.17289307 8.85697021 8.76497559 9.8201416 9.375 10.8125 C10.63840152 12.83390951 11.90274473 14.85473072 13.16796875 16.875 C13.80782715 17.90109375 14.44768555 18.9271875 15.10693359 19.984375 C17.91664983 24.46020876 20.7974261 28.88828617 23.6875 33.3125 C24.76831874 34.97129581 25.84904922 36.63014912 26.9296875 38.2890625 C27.70650879 39.48063965 27.70650879 39.48063965 28.49902344 40.69628906 C35.30265904 51.13856388 42.04050162 61.62202671 48.75 72.125 C54.56520646 81.22685311 60.43686218 90.28947936 66.35009766 99.32788086 C71.67034508 107.47019078 76.91457881 115.65986658 82.14916992 123.85742188 C87.895422 132.85118873 93.70491532 141.80261717 99.53125 150.74462891 C106.36290562 161.23512668 113.13317835 171.76406614 119.875 182.3125 C126.37165098 192.4765411 132.92370315 202.60289841 139.50927734 212.70947266 C143.24573387 218.45061826 146.96031851 224.20595842 150.67919922 229.95849609 C151.9734554 231.95897117 153.26961316 233.95819997 154.56640625 235.95703125 C160.03421658 244.38879737 165.46336293 252.84456305 170.875 261.3125 C177.37904077 271.48820144 183.9384521 281.62628188 190.53125 291.74462891 C197.36290562 302.23512668 204.13317835 312.76406614 210.875 323.3125 C217.37165098 333.4765411 223.92370315 343.60289841 230.50927734 353.70947266 C234.24573387 359.45061826 237.96031851 365.20595842 241.67919922 370.95849609 C242.9734554 372.95897117 244.26961316 374.95819997 245.56640625 376.95703125 C251.03421658 385.38879737 256.46336293 393.84456305 261.875 402.3125 C268.37904077 412.48820144 274.9384521 422.62628188 281.53125 432.74462891 C288.36290562 443.23512668 295.13317835 453.76406614 301.875 464.3125 C308.37165098 474.4765411 314.92370315 484.60289841 321.50927734 494.70947266 C325.24573387 500.45061826 328.96031851 506.20595842 332.67919922 511.95849609 C333.9734554 513.95897117 335.26961316 515.95819997 336.56640625 517.95703125 C342.72583921 527.45533038 348.83490723 536.98513606 354.92724609 546.52661133 C358.19866673 551.64460015 361.4827886 556.75308684 364.80859375 561.8359375 C365.4010791 562.74174561 365.99356445 563.64755371 366.60400391 564.58081055 C367.70883813 566.26648003 368.81640327 567.95036414 369.92724609 569.63208008 C370.4217627 570.38642334 370.9162793 571.1407666 371.42578125 571.91796875 C371.85286377 572.56531982 372.27994629 573.2126709 372.7199707 573.87963867 C374.30129265 576.49908957 375.63163586 579.26327172 377 582 C128.84 582 -119.32 582 -375 582 C-368.25220603 569.62904439 -368.25220603 569.62904439 -365.08203125 564.8359375 C-364.39101318 563.78591553 -363.69999512 562.73589355 -362.98803711 561.65405273 C-361.91114624 560.03092163 -361.91114624 560.03092163 -360.8125 558.375 C-360.04970904 557.21786042 -359.28742703 556.0603852 -358.52563477 554.90258789 C-357.02611256 552.62398265 -355.52499416 550.34644497 -354.02246094 548.06982422 C-351.47570721 544.20419392 -348.94981714 540.32557506 -346.4375 536.4375 C-345.80944458 535.46623169 -345.80944458 535.46623169 -345.16870117 534.4753418 C-340.43892386 527.14847712 -335.75051079 519.79504417 -331.05371094 512.44702148 C-325.23679949 503.35378366 -319.36161692 494.29949369 -313.46875 485.25537109 C-306.63709438 474.76487332 -299.86682165 464.23593386 -293.125 453.6875 C-286.62834902 443.5234589 -280.07629685 433.39710159 -273.49072266 423.29052734 C-269.75426613 417.54938174 -266.03968149 411.79404158 -262.32080078 406.04150391 C-261.0265446 404.04102883 -259.73038684 402.04180003 -258.43359375 400.04296875 C-252.96578342 391.61120263 -247.53663707 383.15543695 -242.125 374.6875 C-235.62095923 364.51179856 -229.0615479 354.37371812 -222.46875 344.25537109 C-215.63709438 333.76487332 -208.86682165 323.23593386 -202.125 312.6875 C-195.6209142 302.51182708 -189.06154816 292.37371852 -182.46875 282.25537109 C-175.67805326 271.82776862 -168.94908382 261.36167044 -162.25 250.875 C-156.43479354 241.77314689 -150.56313782 232.71052064 -144.64990234 223.67211914 C-139.32965492 215.52980922 -134.08542119 207.34013342 -128.85083008 199.14257812 C-123.104578 190.14881127 -117.29508468 181.19738283 -111.46875 172.25537109 C-104.63709438 161.76487332 -97.86682165 151.23593386 -91.125 140.6875 C-84.62834902 130.5234589 -78.07629685 120.39710159 -71.49072266 110.29052734 C-67.75426613 104.54938174 -64.03968149 98.79404158 -60.32080078 93.04150391 C-59.0265446 91.04102883 -57.73038684 89.04180003 -56.43359375 87.04296875 C-50.96578342 78.61120263 -45.53663707 70.15543695 -40.125 61.6875 C-34.13523508 52.31639338 -28.1035971 42.97401468 -22.03125 33.65625 C-19.54108131 29.83501927 -17.06356298 26.0057929 -14.59033203 22.17358398 C-9.79147462 14.73811105 -4.93827573 7.34373956 0 0 Z " fill="#FFFFFF" transform="translate(999,178)"/>
</svg>
